<svg width="32" height="32" viewBox="0 0 512 512" xmlns="http://www.w3.org/2000/svg">
  <rect width="512" height="512" fill="#ffffff" opacity="0"/>

  <g transform="translate(256, 256) scale(1.5)">
    <g id="right-side">
      <path d="M10,-45 Q40,-90 60,-80" fill="none" stroke="oklch(66% 0.2 293)" stroke-width="6" stroke-linecap="round"/>
      <circle cx="60" cy="-80" r="10" fill="oklch(76% 0.16 293)" />

      <polygon points="12,-20 160,-100 150,-40 12,0" fill="oklch(55% 0.24 293)" />
      <polygon points="12,0 150,-40 140,0 12,15" fill="oklch(66% 0.2 293)" />
      <polygon points="12,15 140,0 12,30" fill="oklch(45% 0.22 293)" />

      <polygon points="12,35 130,5 110,60" fill="oklch(66% 0.2 293)" />
      <polygon points="12,35 110,60 90,100" fill="oklch(55% 0.24 293)" />
      <polygon points="12,35 90,100 40,110" fill="oklch(45% 0.22 293)" />
    </g>

    <use href="#right-side" transform="scale(-1, 1)" />

    <circle cx="0" cy="-35" r="18" fill="oklch(76% 0.16 293)" />
    <rect x="-14" y="-15" width="28" height="35" rx="3" fill="oklch(66% 0.2 293)" />
    <rect x="-14" y="25" width="28" height="35" rx="3" fill="oklch(55% 0.24 293)" />
    <path d="M-14,65 L14,65 L0,100 Z" fill="oklch(45% 0.22 293)" />

  </g>
</svg>