<svg width="512" height="512" viewBox="0 0 512 512" xmlns="http://www.w3.org/2000/svg">
  <rect width="512" height="512" fill="#ffffff" opacity="0"/>

  <g transform="translate(256, 256)">
    <g id="right-side">
      <path d="M10,-45 Q40,-90 60,-80" fill="none" stroke="oklch(66% 0.2 293)" stroke-width="4" stroke-linecap="round"/>
      <circle cx="60" cy="-80" r="7" fill="oklch(76% 0.16 293)" />

      <polygon points="12,-20 160,-100 150,-40 12,0" fill="oklch(55% 0.24 293)" />
      <polygon points="12,0 150,-40 140,0 12,15" fill="oklch(66% 0.2 293)" />
      <polygon points="12,15 140,0 12,30" fill="oklch(45% 0.22 293)" />

      <polygon points="12,35 130,5 110,60" fill="oklch(66% 0.2 293)" />
      <polygon points="12,35 110,60 90,100" fill="oklch(55% 0.24 293)" />
      <polygon points="12,35 90,100 40,110" fill="oklch(45% 0.22 293)" />
    </g>

    <use href="#right-side" transform="scale(-1, 1)" />

    <circle cx="0" cy="-35" r="14" fill="oklch(76% 0.16 293)" />
    <rect x="-11" y="-15" width="22" height="35" rx="2" fill="oklch(66% 0.2 293)" />
    <rect x="-11" y="25" width="22" height="35" rx="2" fill="oklch(55% 0.24 293)" />
    <path d="M-11,65 L11,65 L0,95 Z" fill="oklch(45% 0.22 293)" />

  </g>
</svg>